<svg width="197" height="197" viewBox="0 0 197 197" fill="none" xmlns="http://www.w3.org/2000/svg">
<path d="M45.5734 88.5486H70.977V88.7231L69.5812 90.4329H46.9692L45.5734 88.7231V88.5486ZM43.375 86.3153H73.1056V72.3922H67.1385V78.9176H61.2412V72.3922H55.2393V78.9176H49.0629V72.3922H43.375V86.3153ZM68.953 92.6313V137.332C55.3091 132.028 42.8516 136.913 42.8516 136.913C43.7937 124.56 47.5973 92.6313 47.5973 92.6313H68.9879H68.953ZM58.2054 98.9822C55.0997 98.9822 54.8903 103.728 54.8903 103.728V108.892H60.997V103.798C60.997 103.798 61.2761 99.0171 58.1705 99.0171L58.2054 98.9822ZM162.053 88.5486H136.649V88.7231L138.045 90.4329H160.657L162.053 88.7231V88.5486ZM164.251 72.4271H158.563V78.9525H152.387V72.4271H146.385V78.9525H140.488V72.4271H134.521V86.3502H164.251V72.4271ZM160.064 92.6313C160.064 92.6313 165.228 136.634 166.171 148.987C166.171 148.987 152.422 150.034 138.673 142.427V92.6313H160.064ZM146.629 103.798V108.892H152.736V103.728C152.736 103.728 152.527 98.9822 149.421 98.9822C146.315 98.9822 146.594 103.763 146.594 103.763L146.629 103.798ZM81.4106 64.0174C104.755 61.8888 126.53 64.0174 126.53 64.0174V49.2219H120.982V55.6775H114.7V49.2219H107.477V55.6775H100.708V49.2219H93.5889V55.6775H87.238V49.2219H81.1314L81.3757 64.0174H81.4106ZM83.7485 66.0413L85.4933 67.8209C85.4933 67.8209 106.814 66.3902 122.098 67.8209L124.122 66.0413C124.122 66.0413 103.045 63.3544 83.7485 66.0413ZM86.5401 70.2636V96.1208H95.8222V102.611H98.9977V96.1557H108.629V102.611H112.467V96.1557H121.261V70.2985C121.261 70.2985 102.103 68.4142 86.575 70.2985L86.5401 70.2636ZM92.0536 45.4881H116.445L105.104 29.8203V22.8412C105.104 22.8412 110.478 21.8991 113.758 23.0157C117.038 24.1324 123.11 24.4115 126.949 18.7585C126.949 18.7585 119.446 20.7475 115.747 16.4206C112.083 12.1285 105.035 14.1524 105.035 14.1524V11.8493L103.708 10.2441L102.278 11.9191V29.7854L92.0536 45.4532V45.4881ZM72.5123 98.1796L73.1056 138.693C73.1056 138.693 83.8881 145.393 93.3796 144.311V123.653C93.3796 123.653 93.9728 114.615 103.883 114.615C113.793 114.615 114.7 123.967 114.7 123.967V138.658C114.7 138.658 123.32 136.564 134.556 141.135V98.2145H127.472V104.775H121.714V98.2145H115.014V104.565H106.535V98.2145H101.196V104.565H92.891V98.2145H85.9469V104.705H80.259V98.2145H72.5123V98.1796Z" fill="#3850A1"/>
<path d="M62.4982 153.279C81.5858 163.224 96.0672 156.699 96.0672 156.699C119.935 146.963 130.125 155.687 140.803 158.409C151.481 161.13 157.029 159.769 162.647 158.409C168.265 157.048 173.36 152.407 173.36 152.407C154.167 156.524 143.804 151.116 136.022 147.835C128.206 144.52 115.085 140.577 104.163 145.009C93.2407 149.441 82.3186 150.941 71.6756 145.009C61.0326 139.077 51.4016 139.007 51.4016 139.007C35.1405 138.169 24.4277 151.046 24.4277 151.046C24.6371 150.767 43.4455 143.369 62.4982 153.314V153.279ZM34.7567 159.979C34.7567 159.979 51.2271 159.63 62.2539 167.656C73.2808 175.682 94.9157 172.646 97.0094 171.704C99.0682 170.761 115.888 162.805 126.74 166.504C137.592 170.238 149.143 170.901 154.167 167.726C154.167 167.726 146.142 167.795 134.766 163.259C123.39 158.688 114.771 157.466 104.163 160.747C93.5548 164.027 90.1002 166.365 79.7713 165.492C69.4423 164.62 62.4284 160.223 62.4284 160.223C62.4284 160.223 49.1683 152.651 34.7567 159.979ZM50.9829 174.111C50.9829 174.111 66.5809 187.72 86.6805 186.778C86.6805 186.778 98.8239 186.429 106.152 182.451C113.48 178.473 120.878 179.45 124.786 179.695C128.659 179.939 134.626 180.218 140.035 178.508C140.035 178.508 134.347 178.578 126.531 175.577C118.714 172.576 108.874 173.483 100.953 177.182C93.0314 180.846 81.7952 180.916 77.189 180.323C72.5829 179.729 56.0077 174.286 50.9829 174.111Z" fill="#1DADC9"/>
</svg>
